<svg width="128" height="128" viewBox="0 0 128 128" fill="none" xmlns="http://www.w3.org/2000/svg">
<path d="M114.692 84.2399C114.599 85.4829 114.225 86.6887 113.599 87.7666C112.981 88.8585 112.154 89.8185 111.166 90.592C108.01 93.941 104.559 96.9988 100.854 99.7283C98.0079 101.914 94.6668 104.183 91.3052 106.452C88.9747 107.978 86.6649 109.401 84.4375 110.7C86.5314 108.123 88.3882 105.362 89.9853 102.451C91.2401 99.2827 93.682 96.7298 96.7911 95.3354C98.3915 94.3323 99.7442 92.9801 100.748 91.38C101.751 89.7799 102.38 87.9735 102.586 86.096C102.586 86.096 102.586 85.9723 102.586 85.8898C103.287 81.2376 102.862 76.4853 101.349 72.0307C101.016 71.0561 100.588 70.1166 100.07 69.2259C99.897 68.9314 99.7041 68.6489 99.4928 68.3804L99.3071 68.1122C98.863 67.3554 98.2264 66.7297 97.4621 66.2987C96.6978 65.8676 95.833 65.6466 94.9556 65.658C94.0963 65.8943 93.3276 66.3828 92.7488 67.0604C92.1948 67.672 91.7423 68.3682 91.4083 69.1228C91.239 69.423 91.0875 69.7329 90.9546 70.0509C89.455 74.2816 88.2423 78.6086 87.3248 83.0025C87.3222 83.0506 87.3222 83.0988 87.3248 83.1469C86.5186 86.0599 86.767 89.1641 88.026 91.9119C90.0884 96.9441 88.2323 99.2127 87.2011 100.698C84.5936 104.751 81.4355 108.423 77.8173 111.607C74.544 114.505 70.9036 116.96 66.9899 118.908L65.4225 119.486C64.5026 119.743 63.5522 119.874 62.5971 119.878C61.6693 120.041 60.7201 120.041 59.7923 119.878C58.5108 119.658 57.3268 119.052 56.3982 118.142C55.4696 117.232 54.8407 116.06 54.5951 114.783C54.4639 113.981 54.5348 113.159 54.8014 112.391C55.0071 111.533 55.3861 110.726 55.9151 110.019C61.0688 103.906 66.578 98.1002 72.4139 92.6337C75.617 89.709 77.5871 85.6749 77.9242 81.3505C78.2613 77.0261 76.9401 72.7354 74.2288 69.3497C70.9909 65.1012 68.3305 61.3683 66.165 58.1717C63.9995 54.975 62.329 52.2733 61.0503 50.1285C61.0559 50.0323 61.0559 49.9359 61.0503 49.8397V49.6335C60.344 48.6295 60.002 47.4143 60.081 46.1893C60.3502 44.5324 61.2603 43.0479 62.6146 42.0562C63.969 41.0646 65.6591 40.6453 67.3199 40.8891C67.6815 40.9126 68.0404 40.9678 68.3923 41.0541C70.929 41.3222 75.6519 43.8176 81.344 47.7774C86.0623 51.097 90.5863 54.6845 94.8937 58.5223C98.111 61.3477 101.081 64.1525 103.617 66.7717C105.68 68.8341 107.557 70.8964 109.103 72.8557C110.458 74.4629 111.705 76.1577 112.836 77.9291C114.235 79.7199 114.899 81.9768 114.692 84.2399Z" fill="url(#paint0_radial_4_70)"/>
<path d="M75.9195 13.2325C75.6267 11.9468 74.9555 10.7784 73.9924 9.87781C73.0293 8.97721 71.8185 8.38576 70.5161 8.1797C69.5595 7.98199 68.5764 7.94713 67.6082 8.07658C64.8859 8.07658 59.6269 9.78834 53.1717 12.9025C47.9046 15.4503 42.7821 18.2869 37.8277 21.3994C34.2392 23.6474 30.8982 25.916 27.9284 28.1021C24.0995 30.812 20.5239 33.863 17.2453 37.2178C16.2291 37.9767 15.3738 38.9301 14.7293 40.0226C14.0959 41.0987 13.7151 42.3045 13.6156 43.5492C13.4424 45.8552 14.1831 48.1368 15.6779 49.9013C16.9017 51.6873 18.2526 53.3829 19.7202 54.9747C21.3288 56.8721 23.2468 58.9344 25.4329 61.1618C28.114 63.8016 31.1663 66.6064 34.4867 69.4112C38.1371 72.5254 41.7668 75.3715 45.1697 77.8257C43.4773 74.6112 42.0629 71.258 40.9419 67.8026C40.4209 65.2981 39.0152 63.065 36.9821 61.5124C35.9596 60.6237 35.1191 59.5451 34.5073 58.3363C33.7777 56.9037 33.3828 55.3241 33.3524 53.7166C33.0539 44.0853 34.9363 34.5111 38.8589 25.7098C39.1889 24.9673 39.8695 24.4311 40.385 24.5136C40.9006 24.5961 41.0862 25.2973 40.7563 26.081C40.7563 26.081 40.7563 26.081 40.7563 26.1841C37.7034 33.6936 36.1683 41.7334 36.2397 49.8394C36.2397 50.7262 36.7347 51.3449 37.3327 51.3449H37.5184C37.9228 51.1871 38.2626 50.898 38.4832 50.5241C38.7039 50.1501 38.7926 49.7129 38.7352 49.2826C38.7695 41.3806 40.3968 33.5666 43.5198 26.3079C43.8704 25.6273 44.5304 25.1736 45.0254 25.2767C45.5203 25.3798 45.6853 25.9985 45.4378 26.6791C42.3981 33.7206 40.8127 41.3037 40.7769 48.9732C40.7769 49.8807 41.3337 50.52 42.0143 50.3962C42.3912 50.2848 42.7189 50.0485 42.9438 49.7262C43.1686 49.4039 43.2772 49.0148 43.2517 48.6226C43.392 41.3086 45.0053 34.098 47.9952 27.4215C48.3045 26.7203 48.9851 26.2666 49.5007 26.411C50.0163 26.5553 50.1813 27.1947 49.8719 27.8546V27.9577C46.8224 35.5762 45.6688 43.8214 46.5103 51.9843C46.4768 54.4275 45.7626 56.8129 44.4479 58.8725C43.8076 59.9693 43.4133 61.192 43.2922 62.4561C43.1711 63.7203 43.3262 64.9956 43.7467 66.1939C45.9518 72.228 49.2988 77.7807 53.6048 82.5485C54.6865 83.7373 55.9894 84.704 57.4408 85.3945C58.8756 86.1272 60.4119 86.6416 61.9986 86.9207C63.8262 87.351 65.7496 87.0565 67.3647 86.099C68.9798 85.1415 70.1611 83.5954 70.6605 81.7854C70.7193 80.9817 70.5849 80.1755 70.2687 79.4343C70.197 79.1259 70.0714 78.8327 69.8975 78.5681C69.6293 78.135 69.4643 77.805 69.4231 77.7432C68.1032 75.6808 66.3708 72.9791 64.1641 69.8443C61.9573 66.7095 59.1319 62.8735 55.7703 58.6251C52.9506 55.2849 51.56 50.9686 51.8997 46.6106C52.2394 42.2527 54.2819 38.2039 57.5851 35.341C63.5827 29.8954 69.257 24.104 74.579 17.9965C75.1273 17.2965 75.5209 16.4881 75.7339 15.6248C75.9936 14.8552 76.0574 14.033 75.9195 13.2325Z" fill="url(#paint1_radial_4_70)"/>
<defs>
<radialGradient id="paint0_radial_4_70" cx="0" cy="0" r="1" gradientUnits="userSpaceOnUse" gradientTransform="translate(76.562 80.0686) rotate(27.3324) scale(50.2493 69.0985)">
<stop stop-color="#FF0000"/>
<stop offset="0.11" stop-color="#FD0F06"/>
<stop offset="0.45" stop-color="#F63816"/>
<stop offset="0.72" stop-color="#F25120"/>
<stop offset="0.88" stop-color="#F15A24"/>
</radialGradient>
<radialGradient id="paint1_radial_4_70" cx="0" cy="0" r="1" gradientUnits="userSpaceOnUse" gradientTransform="translate(53.9966 47.3967) scale(52.0953 60.4305)">
<stop stop-color="#FF0000"/>
<stop offset="0.11" stop-color="#FD0F06"/>
<stop offset="0.45" stop-color="#F63816"/>
<stop offset="0.72" stop-color="#F25120"/>
<stop offset="0.88" stop-color="#F15A24"/>
</radialGradient>
</defs>
</svg>
