<svg width="16" height="16" viewBox="0 0 16 16" fill="none" xmlns="http://www.w3.org/2000/svg">
<path d="M14.3366 10.53C14.3249 10.6854 14.2782 10.8361 14.1999 10.9708C14.1226 11.1073 14.0193 11.2273 13.8957 11.324C13.5013 11.7426 13.0699 12.1248 12.6068 12.466C12.251 12.7393 11.8334 13.0229 11.4132 13.3064C11.1219 13.4972 10.8331 13.6751 10.5547 13.8375C10.8165 13.5154 11.0486 13.1702 11.2482 12.8063C11.405 12.4103 11.7103 12.0912 12.0989 11.9169C12.299 11.7915 12.468 11.6225 12.5935 11.4225C12.719 11.2225 12.7975 10.9967 12.8233 10.762C12.8233 10.762 12.8233 10.7465 12.8233 10.7362C12.9109 10.1547 12.8578 9.56066 12.6686 9.00384C12.627 8.88201 12.5735 8.76457 12.5088 8.65324C12.4872 8.61642 12.463 8.58111 12.4366 8.54754L12.4134 8.51403C12.3579 8.41943 12.2783 8.34122 12.1828 8.28733C12.0873 8.23345 11.9792 8.20582 11.8695 8.20725C11.7621 8.23678 11.666 8.29785 11.5936 8.38256C11.5244 8.459 11.4678 8.54603 11.4261 8.64035C11.4049 8.67787 11.386 8.71661 11.3694 8.75636C11.1819 9.2852 11.0303 9.82608 10.9156 10.3753C10.9153 10.3813 10.9153 10.3873 10.9156 10.3934C10.8149 10.7575 10.8459 11.1455 11.0033 11.489C11.2611 12.118 11.0291 12.4016 10.9002 12.5872C10.5742 13.0939 10.1795 13.5529 9.7272 13.9509C9.31803 14.3132 8.86298 14.62 8.37377 14.8635L8.17785 14.9357C8.06285 14.9678 7.94406 14.9843 7.82467 14.9847C7.7087 15.0051 7.59004 15.0051 7.47407 14.9847C7.31388 14.9572 7.16588 14.8815 7.04981 14.7678C6.93374 14.654 6.85511 14.5075 6.82442 14.3479C6.80802 14.2477 6.81688 14.1449 6.8502 14.0489C6.87592 13.9416 6.92329 13.8407 6.98941 13.7524C7.63363 12.9882 8.32228 12.2625 9.05177 11.5792C9.45216 11.2136 9.69842 10.7094 9.74055 10.1688C9.78269 9.62826 9.61754 9.09193 9.27863 8.66871C8.8739 8.13765 8.54134 7.67104 8.27065 7.27146C7.99997 6.87188 7.79116 6.53416 7.63132 6.26606C7.63202 6.25404 7.63202 6.24199 7.63132 6.22997V6.20419C7.54303 6.07869 7.50028 5.92679 7.51016 5.77367C7.54381 5.56656 7.65756 5.38099 7.82686 5.25703C7.99616 5.13307 8.20742 5.08067 8.41502 5.11113C8.46022 5.11407 8.50508 5.12097 8.54907 5.13176C8.86616 5.16527 9.45651 5.4772 10.168 5.97217C10.7578 6.38713 11.3233 6.83557 11.8617 7.31528C12.2639 7.66846 12.6351 8.01906 12.9522 8.34646C13.21 8.60426 13.4446 8.86205 13.638 9.10696C13.8073 9.30786 13.9631 9.51971 14.1046 9.74114C14.2795 9.96499 14.3624 10.2471 14.3366 10.53Z" fill="url(#paint0_radial_4_16)"/>
<path d="M9.48994 1.65406C9.45334 1.49336 9.36943 1.3473 9.24905 1.23473C9.12866 1.12215 8.97731 1.04822 8.81452 1.02246C8.69494 0.997749 8.57205 0.993391 8.45103 1.00957C8.11074 1.00957 7.45336 1.22354 6.64646 1.61281C5.98807 1.93129 5.34776 2.28586 4.72846 2.67493C4.2799 2.95593 3.86227 3.2395 3.49105 3.51276C3.01244 3.8515 2.56549 4.23288 2.15567 4.65222C2.02863 4.74709 1.92172 4.86626 1.84116 5.00282C1.76199 5.13733 1.71439 5.28806 1.70195 5.44365C1.68029 5.7319 1.77289 6.0171 1.95974 6.23766C2.11272 6.46092 2.28158 6.67286 2.46502 6.87184C2.6661 7.10901 2.90585 7.3668 3.17912 7.64522C3.51425 7.9752 3.89579 8.3258 4.31084 8.6764C4.76713 9.06567 5.22085 9.42143 5.64622 9.72821C5.43467 9.32641 5.25786 8.90725 5.11773 8.47532C5.05261 8.16226 4.8769 7.88313 4.62277 7.68905C4.49495 7.57796 4.38989 7.44313 4.31341 7.29204C4.22221 7.11296 4.17284 6.91551 4.16905 6.71458C4.13173 5.51067 4.36703 4.31389 4.85736 3.21372C4.89861 3.12092 4.98368 3.05389 5.04813 3.0642C5.11258 3.07451 5.13578 3.16216 5.09453 3.26012C5.09453 3.26012 5.09453 3.26012 5.09453 3.27301C4.71292 4.2117 4.52104 5.21668 4.52996 6.22993C4.52996 6.34078 4.59183 6.41812 4.66659 6.41812H4.68979C4.74035 6.39839 4.78283 6.36225 4.81041 6.31551C4.83798 6.26877 4.84907 6.21412 4.84189 6.16032C4.84618 5.17257 5.0496 4.19583 5.43998 3.28848C5.4838 3.20341 5.5663 3.14669 5.62817 3.15958C5.69004 3.17247 5.71066 3.24981 5.67973 3.33489C5.29976 4.21507 5.10159 5.16296 5.09711 6.12165C5.09711 6.23508 5.16672 6.315 5.25179 6.29953C5.29889 6.2856 5.33986 6.25607 5.36797 6.21578C5.39608 6.17549 5.40965 6.12685 5.40647 6.07783C5.424 5.16358 5.62566 4.26225 5.9994 3.42769C6.03806 3.34004 6.12314 3.28333 6.18759 3.30137C6.25203 3.31942 6.27266 3.39933 6.23399 3.48183V3.49472C5.8528 4.44703 5.7086 5.47767 5.81378 6.49803C5.8096 6.80343 5.72032 7.10162 5.55599 7.35907C5.47595 7.49616 5.42666 7.649 5.41153 7.80702C5.39639 7.96504 5.41578 8.12445 5.46834 8.27424C5.74398 9.0285 6.16235 9.72259 6.7006 10.3186C6.83581 10.4672 6.99868 10.588 7.1801 10.6743C7.35946 10.7659 7.55148 10.8302 7.74983 10.8651C7.97828 10.9189 8.21869 10.8821 8.42058 10.7624C8.62247 10.6427 8.77014 10.4494 8.83256 10.2232C8.83991 10.1227 8.82311 10.0219 8.78358 9.92929C8.77463 9.89074 8.75892 9.85408 8.73718 9.82101C8.70367 9.76688 8.68304 9.72563 8.67789 9.7179C8.5129 9.4601 8.29635 9.12239 8.02051 8.73054C7.74467 8.33869 7.39149 7.85919 6.97128 7.32813C6.61882 6.91062 6.445 6.37107 6.48746 5.82633C6.52992 5.28158 6.78524 4.77548 7.19814 4.41763C7.94784 3.73692 8.65712 3.013 9.32238 2.24957C9.39091 2.16206 9.44011 2.06102 9.46674 1.9531C9.4992 1.8569 9.50718 1.75412 9.48994 1.65406Z" fill="url(#paint1_radial_4_16)"/>
<defs>
<radialGradient id="paint0_radial_4_16" cx="0" cy="0" r="1" gradientUnits="userSpaceOnUse" gradientTransform="translate(9.57028 10.0086) rotate(27.3324) scale(6.28117 8.63731)">
<stop stop-color="#FF0000"/>
<stop offset="0.11" stop-color="#FD0F06"/>
<stop offset="0.45" stop-color="#F63816"/>
<stop offset="0.72" stop-color="#F25120"/>
<stop offset="0.88" stop-color="#F15A24"/>
</radialGradient>
<radialGradient id="paint1_radial_4_16" cx="0" cy="0" r="1" gradientUnits="userSpaceOnUse" gradientTransform="translate(6.74958 5.92459) scale(6.51191 7.55381)">
<stop stop-color="#FF0000"/>
<stop offset="0.11" stop-color="#FD0F06"/>
<stop offset="0.45" stop-color="#F63816"/>
<stop offset="0.72" stop-color="#F25120"/>
<stop offset="0.88" stop-color="#F15A24"/>
</radialGradient>
</defs>
</svg>
