<svg width="180" height="180" viewBox="0 0 180 180" fill="none" xmlns="http://www.w3.org/2000/svg">
<path d="M161.286 118.462C161.155 120.21 160.629 121.906 159.749 123.422C158.879 124.957 157.717 126.307 156.327 127.395C151.889 132.105 147.036 136.405 141.826 140.243C137.824 143.317 133.125 146.507 128.398 149.698C125.121 151.844 121.872 153.845 118.74 155.672C121.685 152.048 124.296 148.165 126.542 144.071C128.306 139.616 131.74 136.026 136.112 134.065C138.363 132.655 140.265 130.753 141.677 128.503C143.088 126.253 143.972 123.713 144.262 121.073C144.262 121.073 144.262 120.899 144.262 120.783C145.247 114.24 144.65 107.557 142.522 101.293C142.054 99.9226 141.451 98.6015 140.724 97.349C140.48 96.9348 140.209 96.5375 139.912 96.1599L139.651 95.7829C139.026 94.7186 138.131 93.8387 137.056 93.2325C135.981 92.6263 134.765 92.3155 133.531 92.3316C132.323 92.6638 131.242 93.3508 130.428 94.3038C129.649 95.1638 129.013 96.1429 128.543 97.204C128.305 97.6261 128.092 98.0619 127.905 98.5091C125.796 104.459 124.091 110.543 122.801 116.722C122.797 116.79 122.797 116.858 122.801 116.925C121.667 121.022 122.016 125.387 123.787 129.251C126.687 136.328 124.077 139.518 122.627 141.606C118.96 147.306 114.519 152.47 109.431 156.948C104.827 161.023 99.7082 164.475 94.2046 167.215L92.0004 168.027C90.7067 168.388 89.3703 168.573 88.0272 168.578C86.7225 168.808 85.3876 168.808 84.0829 168.578C82.2808 168.269 80.6158 167.417 79.31 166.137C78.0042 164.857 77.1197 163.21 76.7744 161.414C76.5898 160.286 76.6895 159.13 77.0644 158.05C77.3537 156.843 77.8867 155.708 78.6305 154.715C85.878 146.117 93.6252 137.953 101.832 130.266C106.336 126.153 109.107 120.48 109.581 114.399C110.055 108.318 108.197 102.284 104.384 97.523C99.831 91.5486 96.0897 86.2992 93.0445 81.8039C89.9993 77.3086 87.6501 73.5094 85.852 70.4932C85.8598 70.3579 85.8598 70.2224 85.852 70.0871V69.7971C84.8587 68.3853 84.3777 66.6764 84.4889 64.9538C84.8675 62.6238 86.1472 60.5361 88.0518 59.1416C89.9564 57.7471 92.3331 57.1575 94.6686 57.5003C95.1771 57.5333 95.6818 57.6109 96.1767 57.7323C99.744 58.1093 106.385 61.6186 114.39 67.1869C121.025 71.8552 127.387 76.9002 133.444 82.297C137.969 86.2702 142.145 90.2145 145.712 93.8978C148.612 96.798 151.251 99.6981 153.427 102.453C155.331 104.713 157.085 107.097 158.676 109.588C160.644 112.106 161.577 115.28 161.286 118.462Z" fill="url(#paint0_radial_4_74)"/>
<path d="M106.762 18.6082C106.35 16.8003 105.406 15.1571 104.052 13.8907C102.697 12.6242 100.995 11.7925 99.1633 11.5027C97.8181 11.2247 96.4356 11.1756 95.074 11.3577C91.2458 11.3577 83.8503 13.7649 74.7727 18.1441C67.3658 21.727 60.1623 25.716 53.1952 30.093C48.1489 33.2542 43.4505 36.4444 39.2743 39.5186C33.89 43.3294 28.8618 47.6198 24.2512 52.3375C22.8221 53.4047 21.6193 54.7455 20.713 56.2817C19.8224 57.795 19.2869 59.4907 19.1469 61.2411C18.9033 64.4839 19.945 67.6924 22.0471 70.1737C23.768 72.6853 25.6677 75.0696 27.7315 77.3082C29.9936 79.9763 32.6908 82.8765 35.765 86.0087C39.5353 89.721 43.8276 93.6653 48.4969 97.6095C53.6302 101.989 58.7346 105.991 63.5199 109.442C61.14 104.922 59.1509 100.207 57.5745 95.3474C56.8419 91.8254 54.8651 88.6852 52.0061 86.5018C50.5682 85.252 49.3863 83.7353 48.5259 82.0355C47.4998 80.0208 46.9445 77.7995 46.9018 75.539C46.482 61.995 49.1291 48.5313 54.6453 36.1544C55.1093 35.1103 56.0664 34.3562 56.7914 34.4723C57.5165 34.5883 57.7775 35.5743 57.3135 36.6764C57.3135 36.6764 57.3135 36.6764 57.3135 36.8214C53.0203 47.3816 50.8616 58.6876 50.962 70.0867C50.962 71.3338 51.6581 72.2038 52.4991 72.2038H52.7602C53.329 71.9818 53.8068 71.5753 54.117 71.0495C54.4273 70.5236 54.552 69.9088 54.4713 69.3036C54.5195 58.1914 56.8079 47.203 61.1997 36.9954C61.6928 36.0384 62.6208 35.4003 63.3169 35.5453C64.0129 35.6903 64.2449 36.5604 63.8969 37.5175C59.6223 47.4195 57.3928 58.0834 57.3425 68.8686C57.3425 70.1447 58.1255 71.0437 59.0826 70.8697C59.6125 70.713 60.0734 70.3807 60.3896 69.9275C60.7058 69.4743 60.8586 68.927 60.8227 68.3755C61.02 58.0902 63.2886 47.9503 67.4932 38.5615C67.9282 37.5755 68.8853 36.9374 69.6103 37.1404C70.3354 37.3434 70.5674 38.2425 70.1323 39.1706V39.3156C65.844 50.0291 64.2217 61.6238 65.405 73.1029C65.3579 76.5386 64.3536 79.8932 62.5048 82.7895C61.6044 84.3318 61.0499 86.0512 60.8796 87.8289C60.7094 89.6066 60.9275 91.4001 61.5188 93.0852C64.6197 101.571 69.3265 109.379 75.3817 116.084C76.9028 117.756 78.7351 119.115 80.7761 120.086C82.7938 121.116 84.9541 121.84 87.1855 122.232C89.7556 122.837 92.4603 122.423 94.7315 121.077C97.0028 119.73 98.664 117.556 99.3663 115.011C99.4489 113.88 99.26 112.747 98.8153 111.704C98.7146 111.271 98.5378 110.858 98.2933 110.486C97.9162 109.877 97.6842 109.413 97.6262 109.326C95.7701 106.426 93.3339 102.627 90.2307 98.2186C87.1275 93.8103 83.1542 88.4159 78.4269 82.4415C74.4617 77.7444 72.5062 71.6745 72.9839 65.5462C73.4616 59.4178 76.334 53.7242 80.9791 49.6983C89.4132 42.0404 97.3926 33.8963 104.877 25.3076C105.648 24.3232 106.201 23.1864 106.501 21.9724C106.866 20.8901 106.956 19.7339 106.762 18.6082Z" fill="url(#paint1_radial_4_74)"/>
<defs>
<radialGradient id="paint0_radial_4_74" cx="0" cy="0" r="1" gradientUnits="userSpaceOnUse" gradientTransform="translate(107.665 112.596) rotate(27.3324) scale(70.6631 97.1697)">
<stop stop-color="#FF0000"/>
<stop offset="0.11" stop-color="#FD0F06"/>
<stop offset="0.45" stop-color="#F63816"/>
<stop offset="0.72" stop-color="#F25120"/>
<stop offset="0.88" stop-color="#F15A24"/>
</radialGradient>
<radialGradient id="paint1_radial_4_74" cx="0" cy="0" r="1" gradientUnits="userSpaceOnUse" gradientTransform="translate(75.9327 66.6517) scale(73.259 84.9804)">
<stop stop-color="#FF0000"/>
<stop offset="0.11" stop-color="#FD0F06"/>
<stop offset="0.45" stop-color="#F63816"/>
<stop offset="0.72" stop-color="#F25120"/>
<stop offset="0.88" stop-color="#F15A24"/>
</radialGradient>
</defs>
</svg>
