<svg width="192" height="192" viewBox="0 0 192 192" fill="none" xmlns="http://www.w3.org/2000/svg">
<path d="M172.039 126.36C171.899 128.224 171.338 130.033 170.399 131.65C169.471 133.288 168.231 134.728 166.749 135.888C162.015 140.912 156.838 145.498 151.281 149.592C147.012 152.872 142 156.274 136.958 159.677C133.462 161.967 129.997 164.101 126.656 166.05C129.797 162.184 132.582 158.043 134.978 153.676C136.86 148.924 140.523 145.095 145.187 143.003C147.587 141.499 149.616 139.47 151.122 137.07C152.627 134.67 153.57 131.96 153.879 129.144C153.879 129.144 153.879 128.959 153.879 128.835C154.93 121.856 154.294 114.728 152.023 108.046C151.524 106.584 150.881 105.175 150.105 103.839C149.845 103.397 149.556 102.973 149.239 102.571L148.961 102.168C148.295 101.033 147.34 100.095 146.193 99.4481C145.047 98.8015 143.749 98.4699 142.433 98.4871C141.144 98.8414 139.991 99.5742 139.123 100.591C138.292 101.508 137.613 102.552 137.112 103.684C136.858 104.135 136.631 104.599 136.432 105.076C134.183 111.422 132.364 117.913 130.987 124.504C130.983 124.576 130.983 124.648 130.987 124.72C129.778 129.09 130.15 133.746 132.039 137.868C135.133 145.416 132.348 148.819 130.802 151.046C126.89 157.127 122.153 162.635 116.726 167.411C111.816 171.758 106.355 175.44 100.485 178.362L98.1338 179.229C96.7539 179.614 95.3284 179.812 93.8957 179.816C92.504 180.061 91.0801 180.061 89.6884 179.816C87.7662 179.487 85.9902 178.578 84.5973 177.213C83.2045 175.848 82.261 174.091 81.8927 172.175C81.6958 170.972 81.8022 169.739 82.2021 168.587C82.5107 167.299 83.0792 166.089 83.8726 165.029C91.6032 155.858 99.867 147.15 108.621 138.951C113.426 134.563 116.381 128.512 116.886 122.026C117.392 115.539 115.41 109.103 111.343 104.025C106.486 97.6519 102.496 92.0525 99.2475 87.2576C95.9993 82.4626 93.4935 78.41 91.5755 75.1927C91.5839 75.0485 91.5839 74.9039 91.5755 74.7596V74.4503C90.5159 72.9444 90.0029 71.1216 90.1215 69.2841C90.5253 66.7987 91.8904 64.5719 93.922 63.0844C95.9535 61.5969 98.4886 60.9681 100.98 61.3337C101.522 61.3689 102.061 61.4517 102.589 61.5811C106.394 61.9833 113.478 65.7265 122.016 71.6661C129.093 76.6456 135.879 82.0269 142.341 87.7835C147.166 92.0216 151.621 96.2288 155.426 100.158C158.52 103.251 161.335 106.345 163.655 109.284C165.687 111.694 167.557 114.237 169.254 116.894C171.353 119.58 172.349 122.965 172.039 126.36Z" fill="url(#paint0_radial_4_78)"/>
<path d="M113.879 19.8487C113.44 17.9203 112.433 16.1676 110.989 14.8167C109.544 13.4658 107.728 12.5786 105.774 12.2695C104.339 11.973 102.865 11.9207 101.412 12.1149C97.3289 12.1149 89.4403 14.6825 79.7575 19.3538C71.8568 23.1754 64.1732 27.4304 56.7416 32.0992C51.3588 35.4711 46.3473 38.874 41.8926 42.1532C36.1493 46.218 30.7859 50.7945 25.868 55.8266C24.3436 56.965 23.0607 58.3952 22.0939 60.0338C21.1439 61.648 20.5727 63.4568 20.4234 65.3238C20.1635 68.7828 21.2747 72.2053 23.5169 74.8519C25.3526 77.531 27.379 80.0743 29.5803 82.462C31.9932 85.3081 34.8702 88.4016 38.1494 91.7427C42.171 95.7024 46.7494 99.9096 51.73 104.117C57.2056 108.788 62.6502 113.057 67.7546 116.738C65.216 111.917 63.0944 106.887 61.4128 101.704C60.6314 97.9471 58.5228 94.5975 55.4732 92.2686C53.9394 90.9355 52.6787 89.3176 51.761 87.5045C50.6665 85.3555 50.0741 82.9862 50.0286 80.575C49.5808 66.128 52.4044 51.7667 58.2883 38.5647C58.7833 37.451 59.8042 36.6467 60.5776 36.7704C61.351 36.8941 61.6294 37.9459 61.1344 39.1215C61.1344 39.1215 61.1344 39.1215 61.1344 39.2762C56.555 50.5404 54.2524 62.6001 54.3595 74.7591C54.3595 76.0893 55.102 77.0174 55.9991 77.0174H56.2775C56.8842 76.7806 57.3939 76.347 57.7249 75.7861C58.0558 75.2252 58.1889 74.5694 58.1027 73.9238C58.1542 62.0708 60.5952 50.3499 65.2797 39.4618C65.8057 38.4409 66.7956 37.7603 67.538 37.915C68.2805 38.0697 68.528 38.9978 68.1567 40.0186C63.5971 50.5808 61.2191 61.9556 61.1653 73.4598C61.1653 74.821 62.0006 75.78 63.0215 75.5944C63.5867 75.4272 64.0784 75.0728 64.4156 74.5893C64.7529 74.1059 64.9158 73.5221 64.8776 72.9339C65.088 61.9629 67.5079 51.1469 71.9927 41.1323C72.4568 40.0805 73.4776 39.3999 74.251 39.6165C75.0244 39.833 75.2719 40.792 74.8079 41.7819V41.9366C70.2336 53.3643 68.5032 65.7321 69.7654 77.9764C69.7152 81.6412 68.6438 85.2194 66.6718 88.3088C65.7114 89.9539 65.1199 91.788 64.9383 93.6842C64.7567 95.5804 64.9893 97.4935 65.62 99.2909C68.9277 108.342 73.9483 116.671 80.4072 123.823C82.0297 125.606 83.9841 127.056 86.1612 128.092C88.3135 129.191 90.6178 129.962 92.9979 130.381C95.7394 131.027 98.6243 130.585 101.047 129.148C103.47 127.712 105.242 125.393 105.991 122.678C106.079 121.472 105.877 120.263 105.403 119.151C105.296 118.689 105.107 118.249 104.846 117.852C104.444 117.203 104.197 116.708 104.135 116.615C102.155 113.521 99.5562 109.469 96.2461 104.766C92.936 100.064 88.6979 94.3103 83.6554 87.9376C79.4258 82.9274 77.34 76.4528 77.8495 69.9159C78.359 63.379 81.4229 57.3058 86.3777 53.0115C95.3741 44.8431 103.885 36.1561 111.869 26.9948C112.691 25.9447 113.281 24.7322 113.601 23.4372C113.99 22.2828 114.086 21.0494 113.879 19.8487Z" fill="url(#paint1_radial_4_78)"/>
<defs>
<radialGradient id="paint0_radial_4_78" cx="0" cy="0" r="1" gradientUnits="userSpaceOnUse" gradientTransform="translate(114.843 120.103) rotate(27.3324) scale(75.374 103.648)">
<stop stop-color="#FF0000"/>
<stop offset="0.11" stop-color="#FD0F06"/>
<stop offset="0.45" stop-color="#F63816"/>
<stop offset="0.72" stop-color="#F25120"/>
<stop offset="0.88" stop-color="#F15A24"/>
</radialGradient>
<radialGradient id="paint1_radial_4_78" cx="0" cy="0" r="1" gradientUnits="userSpaceOnUse" gradientTransform="translate(80.9949 71.0951) scale(78.1429 90.6458)">
<stop stop-color="#FF0000"/>
<stop offset="0.11" stop-color="#FD0F06"/>
<stop offset="0.45" stop-color="#F63816"/>
<stop offset="0.72" stop-color="#F25120"/>
<stop offset="0.88" stop-color="#F15A24"/>
</radialGradient>
</defs>
</svg>
