<svg width="32" height="32" viewBox="0 0 32 32" fill="none" xmlns="http://www.w3.org/2000/svg">
<path d="M28.6732 21.06C28.6498 21.3707 28.5564 21.6722 28.3999 21.9416C28.2453 22.2146 28.0386 22.4546 27.7915 22.648C27.0025 23.4852 26.1397 24.2497 25.2135 24.9321C24.502 25.4786 23.6668 26.0457 22.8264 26.6129C22.2437 26.9944 21.6663 27.3502 21.1094 27.675C21.6329 27.0307 22.0971 26.3405 22.4964 25.6126C22.8101 24.8207 23.4206 24.1824 24.1978 23.8339C24.5979 23.5831 24.9361 23.245 25.187 22.845C25.4379 22.445 25.595 21.9934 25.6466 21.524C25.6466 21.524 25.6466 21.4931 25.6466 21.4725C25.8217 20.3094 25.7157 19.1213 25.3373 18.0077C25.254 17.764 25.147 17.5291 25.0176 17.3065C24.9743 17.2328 24.9261 17.1622 24.8733 17.0951L24.8268 17.0281C24.7158 16.8389 24.5567 16.6824 24.3656 16.5747C24.1745 16.4669 23.9583 16.4116 23.739 16.4145C23.5241 16.4736 23.332 16.5957 23.1873 16.7651C23.0488 16.918 22.9356 17.0921 22.8521 17.2807C22.8098 17.3557 22.7719 17.4332 22.7387 17.5127C22.3638 18.5704 22.0606 19.6522 21.8313 20.7506C21.8306 20.7626 21.8306 20.7747 21.8313 20.7867C21.6297 21.515 21.6918 22.291 22.0066 22.978C22.5222 24.236 22.0581 24.8032 21.8003 25.1744C21.1485 26.1878 20.3589 27.1057 19.4544 27.9019C18.6361 28.6263 17.726 29.24 16.7475 29.7271L16.3557 29.8714C16.1257 29.9356 15.8881 29.9686 15.6493 29.9694C15.4174 30.0102 15.1801 30.0102 14.9481 29.9694C14.6278 29.9144 14.3318 29.7631 14.0996 29.5355C13.8675 29.308 13.7102 29.0151 13.6488 28.6959C13.616 28.4953 13.6338 28.2898 13.7004 28.0978C13.7518 27.8832 13.8466 27.6815 13.9788 27.5049C15.2673 25.9764 16.6446 24.5251 18.1035 23.1584C18.9043 22.4272 19.3968 21.4187 19.4811 20.3376C19.5654 19.2565 19.2351 18.1839 18.5573 17.3374C17.7478 16.2753 17.0827 15.3421 16.5413 14.5429C15.9999 13.7438 15.5823 13.0683 15.2626 12.5321C15.264 12.5081 15.264 12.484 15.2626 12.4599V12.4084C15.0861 12.1574 15.0006 11.8536 15.0203 11.5473C15.0876 11.1331 15.3151 10.762 15.6537 10.5141C15.9923 10.2661 16.4148 10.1613 16.83 10.2223C16.9204 10.2281 17.0102 10.2419 17.0981 10.2635C17.7323 10.3305 18.913 10.9544 20.3361 11.9443C21.5156 12.7743 22.6466 13.6711 23.7235 14.6306C24.5278 15.3369 25.2703 16.0381 25.9044 16.6929C26.42 17.2085 26.8892 17.7241 27.2759 18.2139C27.6145 18.6157 27.9263 19.0394 28.2091 19.4823C28.5589 19.93 28.7249 20.4942 28.6732 21.06Z" fill="url(#paint0_radial_4_66)"/>
<path d="M18.9799 3.30812C18.9067 2.98671 18.7389 2.6946 18.4981 2.46945C18.2573 2.2443 17.9546 2.09644 17.629 2.04492C17.3899 1.9955 17.1441 1.98678 16.9021 2.01914C16.2215 2.01914 14.9067 2.44708 13.2929 3.22563C11.9761 3.86257 10.6955 4.57173 9.45693 5.34986C8.5598 5.91185 7.72455 6.479 6.98209 7.02553C6.02489 7.703 5.13098 8.46575 4.31134 9.30444C4.05726 9.49417 3.84344 9.73253 3.68231 10.0056C3.52398 10.2747 3.42878 10.5761 3.4039 10.8873C3.36059 11.4638 3.54578 12.0342 3.91949 12.4753C4.22543 12.9218 4.56316 13.3457 4.93004 13.7437C5.33221 14.218 5.8117 14.7336 6.35823 15.2904C7.0285 15.9504 7.79157 16.6516 8.62167 17.3528C9.53427 18.1313 10.4417 18.8429 11.2924 19.4564C10.8693 18.6528 10.5157 17.8145 10.2355 16.9506C10.1052 16.3245 9.7538 15.7663 9.24554 15.3781C8.9899 15.1559 8.77979 14.8863 8.62683 14.5841C8.44441 14.2259 8.34569 13.831 8.3381 13.4292C8.26347 11.0213 8.73407 8.62779 9.71472 6.42744C9.79722 6.24183 9.96736 6.10778 10.0963 6.1284C10.2252 6.14902 10.2716 6.32432 10.1891 6.52025C10.1891 6.52025 10.1891 6.52025 10.1891 6.54603C9.42584 8.42339 9.04207 10.4334 9.05992 12.4599C9.05992 12.6816 9.18367 12.8362 9.33319 12.8362H9.37959C9.48071 12.7968 9.56565 12.7245 9.62081 12.631C9.67597 12.5375 9.69814 12.4282 9.68379 12.3206C9.69236 10.3451 10.0992 8.39165 10.88 6.57696C10.9676 6.40682 11.1326 6.29339 11.2563 6.31917C11.3801 6.34495 11.4213 6.49963 11.3595 6.66977C10.5995 8.43014 10.2032 10.3259 10.1942 12.2433C10.1942 12.4702 10.3334 12.63 10.5036 12.5991C10.5978 12.5712 10.6797 12.5121 10.7359 12.4316C10.7922 12.351 10.8193 12.2537 10.8129 12.1557C10.848 10.3272 11.2513 8.52449 11.9988 6.85538C12.0761 6.68008 12.2463 6.56665 12.3752 6.60274C12.5041 6.63884 12.5453 6.79867 12.468 6.96366V6.98944C11.7056 8.89406 11.4172 10.9553 11.6276 12.9961C11.6192 13.6069 11.4406 14.2032 11.112 14.7181C10.9519 14.9923 10.8533 15.298 10.8231 15.614C10.7928 15.9301 10.8316 16.2489 10.9367 16.5485C11.488 18.057 12.3247 19.4452 13.4012 20.6371C13.6716 20.9343 13.9974 21.176 14.3602 21.3486C14.7189 21.5318 15.103 21.6604 15.4997 21.7302C15.9566 21.8378 16.4374 21.7641 16.8412 21.5247C17.2449 21.2854 17.5403 20.8988 17.6651 20.4463C17.6798 20.2454 17.6462 20.0439 17.5672 19.8586C17.5493 19.7815 17.5178 19.7082 17.4744 19.642C17.4073 19.5338 17.3661 19.4513 17.3558 19.4358C17.0258 18.9202 16.5927 18.2448 16.041 17.4611C15.4893 16.6774 14.783 15.7184 13.9426 14.6563C13.2376 13.8212 12.89 12.7421 12.9749 11.6527C13.0598 10.5632 13.5705 9.55097 14.3963 8.83525C15.8957 7.47385 17.3142 6.02601 18.6448 4.49913C18.7818 4.32412 18.8802 4.12204 18.9335 3.90621C18.9984 3.7138 19.0144 3.50824 18.9799 3.30812Z" fill="url(#paint1_radial_4_66)"/>
<defs>
<radialGradient id="paint0_radial_4_66" cx="0" cy="0" r="1" gradientUnits="userSpaceOnUse" gradientTransform="translate(19.1406 20.0171) rotate(27.3324) scale(12.5623 17.2746)">
<stop stop-color="#FF0000"/>
<stop offset="0.11" stop-color="#FD0F06"/>
<stop offset="0.45" stop-color="#F63816"/>
<stop offset="0.72" stop-color="#F25120"/>
<stop offset="0.88" stop-color="#F15A24"/>
</radialGradient>
<radialGradient id="paint1_radial_4_66" cx="0" cy="0" r="1" gradientUnits="userSpaceOnUse" gradientTransform="translate(13.4992 11.8492) scale(13.0238 15.1076)">
<stop stop-color="#FF0000"/>
<stop offset="0.11" stop-color="#FD0F06"/>
<stop offset="0.45" stop-color="#F63816"/>
<stop offset="0.72" stop-color="#F25120"/>
<stop offset="0.88" stop-color="#F15A24"/>
</radialGradient>
</defs>
</svg>
